<?xml version="1.0" standalone="no"?>
<!DOCTYPE svg PUBLIC "-//W3C//DTD SVG 20010904//EN"
 "http://www.w3.org/TR/2001/REC-SVG-20010904/DTD/svg10.dtd">
<svg version="1.0" xmlns="http://www.w3.org/2000/svg"
 width="1553.000000pt" height="1248.000000pt" viewBox="0 0 1553.000000 1248.000000"
 preserveAspectRatio="xMidYMid meet">

<g transform="translate(0.000000,1248.000000) scale(0.100000,-0.100000)"
fill="#000000" stroke="none">
<path d="M7480 10523 c-644 -48 -1279 -240 -1816 -548 -206 -119 -423 -270
-619 -434 -121 -100 -411 -393 -509 -513 -353 -433 -605 -899 -777 -1438 l-53
-165 -100 -75 c-129 -96 -449 -414 -548 -545 -362 -479 -565 -998 -619 -1589
-15 -158 -6 -509 15 -656 100 -672 376 -1235 835 -1704 491 -501 1138 -813
1841 -886 132 -14 5112 -14 5251 0 788 78 1520 464 2025 1068 354 424 578 924
666 1487 19 120 22 182 22 430 0 250 -3 309 -22 430 -128 814 -542 1508 -1188
1991 -92 69 -114 89 -119 116 -4 18 -27 93 -52 167 -261 792 -737 1467 -1414
2007 -610 485 -1382 784 -2204 854 -110 9 -508 11 -615 3z m595 -1859 c772
-92 1461 -607 1786 -1336 141 -316 199 -612 199 -1010 l0 -208 59 0 c130 0
318 -49 456 -118 565 -283 802 -958 534 -1521 -114 -240 -290 -418 -533 -536
-140 -69 -265 -102 -431 -115 -88 -8 -891 -10 -2495 -7 -2585 3 -2400 -1
-2580 58 -471 156 -800 609 -800 1102 0 287 118 578 317 788 314 330 771 447
1203 308 163 -53 375 -188 485 -311 63 -70 140 -179 177 -252 l30 -59 674 674
c578 578 671 675 661 689 -244 294 -459 492 -720 663 -295 194 -574 317 -932
411 l-130 34 90 89 c415 408 965 649 1545 676 103 5 264 -3 405 -19z"/>
</g>
</svg>
