<?xml version="1.0" standalone="no"?>
<!DOCTYPE svg PUBLIC "-//W3C//DTD SVG 20010904//EN"
 "http://www.w3.org/TR/2001/REC-SVG-20010904/DTD/svg10.dtd">
<svg version="1.0" xmlns="http://www.w3.org/2000/svg"
 width="4549.000000pt" height="4549.000000pt" viewBox="0 0 4549.000000 4549.000000"
 preserveAspectRatio="xMidYMid meet">

<g transform="translate(0.000000,4549.000000) scale(0.100000,-0.100000)"
fill="#000000" stroke="none">
<path d="M22445 39404 c-16 -2 -73 -9 -125 -15 -311 -34 -667 -143 -960 -292
-575 -292 -1026 -753 -1306 -1332 -159 -328 -253 -673 -284 -1040 -50 -600
112 -1266 433 -1768 27 -43 53 -77 58 -75 5 2 285 280 624 618 l616 614 -21
86 c-102 436 19 864 330 1171 178 175 400 290 642 334 145 26 387 17 521 -18
317 -84 576 -276 743 -552 134 -220 191 -465 172 -737 -19 -284 -141 -549
-347 -758 -306 -311 -746 -434 -1170 -329 l-84 21 -618 -618 c-341 -341 -618
-623 -616 -628 2 -5 54 -40 117 -78 373 -225 792 -363 1234 -408 171 -18 543
-8 711 19 319 51 601 143 890 290 337 171 636 407 889 702 352 411 581 914
668 1470 19 123 22 183 22 419 0 236 -3 296 -22 419 -109 694 -435 1298 -951
1758 -457 408 -1038 661 -1660 723 -95 9 -436 12 -506 4z"/>
<path d="M16695 35474 c-918 -71 -1701 -354 -2415 -873 -356 -258 -743 -647
-1004 -1010 -717 -994 -1007 -2264 -790 -3461 300 -1658 1471 -3006 3066
-3529 523 -171 1089 -249 1620 -221 285 14 708 69 708 92 0 8 -838 2062 -864
2118 -11 25 -13 25 -166 31 -323 13 -602 85 -905 234 -233 114 -413 241 -594
418 -373 366 -596 803 -678 1327 -24 159 -24 500 0 659 81 519 314 973 681
1329 344 333 757 542 1231 623 154 26 450 36 606 20 347 -36 691 -151 980
-329 l66 -40 798 798 c459 459 795 802 791 809 -23 37 -423 312 -605 415 -529
302 -1152 502 -1772 571 -136 15 -639 28 -754 19z"/>
<path d="M19801 32846 l-805 -805 59 -123 c262 -554 292 -1187 85 -1771 -106
-296 -282 -579 -510 -821 l-77 -81 431 -1055 c238 -580 435 -1063 439 -1073 6
-16 15 -12 80 31 1177 795 1912 2076 2007 3497 60 907 -169 1843 -642 2628
-87 144 -246 377 -257 377 -3 0 -368 -362 -810 -804z"/>
<path d="M22215 26749 c-733 -37 -1522 -164 -2206 -353 -227 -63 -254 -71
-252 -82 3 -18 1266 -3099 1273 -3107 4 -5 72 6 151 23 540 118 1010 170 1547
170 1692 0 3282 -593 4577 -1709 137 -117 473 -449 609 -601 1464 -1628 2078
-3866 1650 -6010 -488 -2440 -2237 -4437 -4586 -5235 -1450 -494 -3015 -496
-4468 -8 -1571 527 -2895 1595 -3755 3028 -538 896 -855 1870 -962 2960 -25
257 -25 963 0 1220 57 578 154 1051 323 1567 538 1646 1678 3033 3201 3894
l152 86 -13 32 c-7 17 -291 717 -631 1556 -340 839 -619 1526 -621 1528 -3 5
-177 -84 -374 -190 -1167 -632 -2181 -1463 -3033 -2486 -982 -1179 -1701
-2601 -2076 -4107 -412 -1655 -410 -3353 5 -5010 123 -489 317 -1066 519
-1540 640 -1500 1621 -2821 2874 -3868 1599 -1337 3582 -2165 5656 -2361 358
-34 511 -41 965 -41 469 0 614 7 1006 45 2739 268 5262 1617 6995 3740 1973
2418 2749 5571 2123 8625 -639 3115 -2686 5766 -5544 7179 -1265 626 -2623
979 -4055 1056 -218 11 -813 11 -1050 -1z"/>
</g>
</svg>
