<?xml version="1.0" standalone="no"?>
<!DOCTYPE svg PUBLIC "-//W3C//DTD SVG 20010904//EN"
 "http://www.w3.org/TR/2001/REC-SVG-20010904/DTD/svg10.dtd">
<svg version="1.0" xmlns="http://www.w3.org/2000/svg"
 width="1359.000000pt" height="1353.000000pt" viewBox="0 0 1359.000000 1353.000000"
 preserveAspectRatio="xMidYMid meet">

<g transform="translate(0.000000,1353.000000) scale(0.100000,-0.100000)"
fill="#000000" stroke="none">
<path d="M7595 12063 c-33 -8 -62 -17 -64 -19 -3 -3 6 -12 20 -21 138 -97 236
-274 247 -450 7 -113 -10 -183 -73 -315 -30 -62 -62 -142 -71 -178 -21 -79
-23 -205 -5 -280 11 -47 94 -240 103 -240 2 0 1 58 -1 130 -4 159 13 246 70
360 51 102 162 220 314 335 62 47 133 107 159 134 41 44 46 55 46 95 0 172
-220 390 -455 451 -75 19 -212 18 -290 -2z"/>
<path d="M8617 11913 c-4 -3 -7 -35 -7 -69 0 -79 -36 -196 -87 -284 -54 -93
-151 -185 -271 -258 -134 -83 -207 -144 -269 -228 -89 -120 -134 -261 -134
-415 0 -87 21 -199 48 -251 7 -16 12 -28 10 -28 -3 0 -149 56 -326 125 -282
109 -350 131 -563 184 -701 173 -1316 202 -2022 97 -434 -66 -621 -125 -986
-314 -257 -133 -368 -219 -660 -512 -124 -125 -250 -247 -280 -272 -132 -109
-308 -211 -484 -282 -110 -45 -359 -112 -481 -130 -190 -28 -302 -84 -423
-211 -118 -124 -178 -241 -208 -405 -27 -148 -11 -240 57 -335 43 -60 204
-195 286 -241 34 -20 63 -42 63 -51 0 -31 51 -163 86 -224 77 -131 223 -252
363 -299 l69 -24 -1 -136 c-2 -159 6 -210 32 -210 26 0 104 88 180 203 36 53
65 96 66 94 1 -1 -3 -72 -8 -157 -10 -164 -4 -277 17 -305 12 -16 15 -16 43
-1 38 19 133 136 226 276 38 58 77 108 87 112 31 11 317 57 429 68 133 13 479
13 612 0 537 -53 1014 -224 1464 -525 723 -482 1216 -1250 1366 -2123 25 -148
24 -156 -8 -91 -77 153 -297 290 -467 289 l-61 -1 -67 -137 c-37 -76 -95 -178
-130 -227 -57 -82 -218 -255 -237 -255 -4 0 -7 75 -7 168 -1 146 -13 284 -31
346 -3 13 -19 -22 -44 -99 -22 -65 -62 -166 -90 -224 -57 -120 -189 -325 -220
-342 -47 -25 -247 12 -367 67 -261 119 -395 329 -337 530 9 32 25 74 36 93 25
43 49 134 49 186 0 51 -30 115 -65 143 -15 12 -64 34 -109 48 -352 113 -722
-112 -827 -502 -29 -106 -31 -311 -5 -434 40 -187 116 -367 221 -525 55 -83
171 -210 235 -258 24 -18 30 -27 20 -30 -8 -2 -76 -18 -151 -35 -141 -32 -209
-54 -209 -70 0 -22 323 -172 463 -216 360 -114 478 -139 735 -156 673 -44
1355 198 1880 669 414 372 717 910 818 1453 10 54 19 96 21 94 9 -9 43 -237
54 -357 12 -149 6 -348 -17 -529 -93 -724 -481 -1378 -1070 -1803 -69 -49
-110 -85 -104 -91 13 -13 304 37 540 95 204 50 537 156 700 222 47 19 87 33
89 31 2 -2 -31 -47 -75 -101 -414 -518 -878 -900 -1459 -1200 -102 -53 -151
-83 -135 -83 44 0 290 29 420 50 1236 200 2367 972 3024 2065 36 61 66 106 66
100 0 -29 -74 -332 -109 -450 -129 -426 -298 -792 -537 -1157 -46 -71 -81
-128 -78 -128 12 0 203 137 309 223 251 201 485 436 680 681 431 544 721 1164
861 1840 19 94 36 171 38 173 2 2 13 -54 25 -124 57 -334 79 -678 63 -973 -6
-107 -10 -196 -8 -198 2 -2 47 61 99 140 386 581 630 1183 737 1817 46 276 55
392 55 751 0 366 -9 480 -60 787 -171 1016 -684 2092 -1349 2827 l-90 99 -17
-134 c-73 -573 -390 -1064 -882 -1367 -267 -164 -575 -259 -902 -277 -178 -11
-352 8 -592 62 -36 8 -27 23 13 23 59 0 272 47 395 87 145 47 377 163 499 250
107 77 285 244 370 348 222 271 372 636 410 996 64 607 -214 1262 -684 1613
-218 163 -395 270 -529 321 -73 27 -80 29 -90 18z"/>
</g>
</svg>
