<?xml version="1.0" standalone="no"?>
<!DOCTYPE svg PUBLIC "-//W3C//DTD SVG 20010904//EN"
 "http://www.w3.org/TR/2001/REC-SVG-20010904/DTD/svg10.dtd">
<svg version="1.0" xmlns="http://www.w3.org/2000/svg"
 width="1779.000000pt" height="1576.000000pt" viewBox="0 0 1779.000000 1576.000000"
 preserveAspectRatio="xMidYMid meet">

<g transform="translate(0.000000,1576.000000) scale(0.100000,-0.100000)"
fill="#000000" stroke="none">
<path d="M8755 14044 c-11 -2 -63 -14 -115 -25 -52 -12 -128 -34 -167 -50 -68
-27 -4465 -2563 -4598 -2652 -78 -52 -220 -195 -273 -274 -88 -131 -137 -249
-171 -420 -21 -101 -21 -113 -21 -2743 l0 -2641 21 -102 c55 -264 182 -479
374 -634 92 -74 1225 -726 1427 -822 225 -106 401 -168 612 -213 86 -19 134
-22 321 -22 230 -1 289 6 467 50 253 63 423 153 591 313 184 174 293 368 366
648 70 270 65 47 69 2923 2 1971 0 2609 -9 2655 -23 120 -95 201 -202 230 -53
14 -108 16 -387 13 -287 -3 -330 -5 -365 -21 -47 -21 -110 -79 -132 -122 -44
-83 -43 6 -43 -2690 l0 -2560 -24 -57 c-48 -117 -132 -199 -251 -244 -40 -15
-76 -19 -180 -18 -114 0 -139 3 -208 27 -114 40 -176 74 -792 430 l-560 324
-3 2546 -2 2545 2192 1263 2191 1262 31 -17 c17 -10 1004 -578 2194 -1263
l2162 -1246 -2 -2544 -3 -2545 -2030 -1174 c-1116 -647 -2102 -1217 -2190
-1268 l-161 -93 -580 346 c-419 251 -593 350 -630 358 -69 16 -125 0 -250 -70
-160 -90 -318 -162 -484 -218 -136 -47 -160 -58 -197 -95 -54 -55 -70 -108
-53 -183 23 -104 38 -114 910 -630 432 -256 819 -479 861 -497 177 -75 399
-108 569 -85 120 16 272 56 360 95 133 59 4500 2594 4588 2664 195 154 326
373 381 639 l21 102 0 2641 c0 2630 0 2642 -21 2743 -34 171 -83 289 -171 420
-53 79 -195 222 -273 274 -116 77 -4524 2622 -4587 2648 -127 52 -251 77 -408
80 -80 2 -154 2 -165 -1z"/>
<path d="M9843 10429 c-556 -33 -1041 -186 -1358 -427 -366 -278 -555 -669
-555 -1147 0 -450 159 -795 476 -1030 329 -245 791 -374 1679 -470 665 -71
1006 -141 1205 -246 106 -56 139 -100 147 -196 12 -146 -30 -278 -116 -362
-175 -171 -537 -241 -1175 -228 -356 7 -587 34 -746 87 -300 99 -430 257 -491
598 -24 135 -42 176 -101 226 -68 59 -86 61 -468 61 -403 0 -407 -1 -488 -90
-78 -86 -94 -171 -71 -383 56 -519 281 -903 689 -1177 420 -281 1108 -431
1890 -412 357 9 572 36 860 108 311 77 508 159 728 306 428 284 664 735 663
1270 0 159 -11 250 -48 398 -55 221 -143 379 -292 525 -312 306 -804 466
-1861 605 -717 94 -1050 163 -1204 248 -92 50 -101 68 -101 196 1 96 4 113 28
163 70 142 256 234 554 273 353 46 913 19 1135 -56 272 -91 406 -246 493 -570
27 -103 43 -134 87 -175 80 -76 124 -84 473 -84 315 0 363 6 436 55 94 62 136
177 119 323 -88 745 -457 1216 -1135 1449 -381 130 -941 193 -1452 162z"/>
</g>
</svg>
