<?xml version="1.0" standalone="no"?>
<!DOCTYPE svg PUBLIC "-//W3C//DTD SVG 20010904//EN"
 "http://www.w3.org/TR/2001/REC-SVG-20010904/DTD/svg10.dtd">
<svg version="1.0" xmlns="http://www.w3.org/2000/svg"
 width="1633.000000pt" height="1633.000000pt" viewBox="0 0 1633.000000 1633.000000"
 preserveAspectRatio="xMidYMid meet">

<g transform="translate(0.000000,1633.000000) scale(0.100000,-0.100000)"
fill="#000000" stroke="none">
<path d="M2830 8165 l0 -5335 5335 0 5335 0 0 5335 0 5335 -5335 0 -5335 0 0
-5335z m8295 455 c278 -18 426 -53 620 -151 128 -64 247 -153 357 -267 85 -88
224 -265 254 -325 16 -29 15 -31 -7 -49 -35 -28 -670 -451 -702 -468 -38 -19
-49 -11 -129 96 -170 227 -315 301 -576 292 -86 -3 -132 -10 -175 -26 -122
-44 -212 -137 -248 -255 -28 -90 -24 -227 9 -302 79 -177 177 -245 667 -463
620 -276 880 -428 1090 -637 151 -150 247 -306 308 -500 95 -304 99 -643 11
-935 -133 -437 -512 -757 -1056 -890 -179 -44 -300 -53 -601 -47 -336 7 -495
34 -741 126 -423 159 -716 403 -952 794 -47 77 -47 78 -28 96 20 19 780 461
792 461 4 -1 32 -37 62 -82 104 -155 305 -345 429 -407 64 -32 187 -74 276
-93 99 -21 353 -15 450 11 188 50 327 150 389 280 29 63 31 72 31 186 0 116
-1 123 -32 186 -84 169 -205 248 -783 504 -555 246 -755 367 -965 586 -177
184 -305 426 -341 648 -20 124 -28 379 -16 501 43 413 306 783 698 978 270
135 518 176 909 152z m-2185 -57 c3 -3 6 -200 8 -439 l3 -434 -695 0 -696 0 0
-1975 0 -1975 -495 0 -495 0 0 1975 0 1975 -695 0 -695 0 0 138 c0 76 3 274 7
440 l6 302 946 3 c1049 4 2793 -3 2801 -10z"/>
</g>
</svg>
